<svg width="46" height="8" viewBox="0 0 46 8" fill="none" xmlns="http://www.w3.org/2000/svg">
<path d="M4.29297 0L5.21191 1.75488L5.33789 1.55566L6.17188 0.233398L6.31836 0H7.83203L7.97266 0.264648L10.2979 4.61621L10.457 4.58594L11.5439 4.37305L10.1514 6.75293L10.0059 7H8.5918L8.44922 6.74316L7.50391 5.0459L7.33887 5.3291L6.36035 7H4.94043L3.66797 4.62109L2.68359 6.70508L2.47852 6.77246L1.77832 7H0.861328L0.725586 6.71387L0.100586 5.3916L0 5.17773L0.100586 4.96387L0.861328 3.35547H1.99414L2.65332 4.55273L2.7666 4.50879L3.46289 4.23633L2.44043 2.32227H1.20898L2.52539 0.233398L2.67285 0H4.29297ZM6.61816 1.39844L9.18066 6H9.43262L9.67871 5.57812L9.59082 5.41406L7.23242 1H6.87012L6.61816 1.39844ZM3.02148 1.32227H3.04004L3.18164 1.58594L5.54004 6H5.78613L6.05957 5.53223L5.94336 5.30859L3.6875 1H3.22363L3.02148 1.32227ZM1.10547 5.17773L1.49512 6H1.61914L1.96289 5.8877L2.09473 5.60938L1.45215 4.44434L1.10547 5.17773ZM6.68848 4.57617H7.24219L5.9873 2.32227H5.50879L6.68848 4.57617Z" fill="#6B53E4"/>
<path d="M44.444 6.5C44.2893 6.5 44.148 6.484 44.02 6.452C43.892 6.42 43.78 6.38 43.684 6.332V7.708H42.396V3.912L42.156 3.764V3.336L43.016 3.1H43.684V3.368C43.78 3.26933 43.896 3.18667 44.032 3.12C44.168 3.05333 44.3266 3.02 44.508 3.02C44.948 3.02 45.2706 3.17067 45.476 3.472C45.684 3.77333 45.788 4.19067 45.788 4.724C45.788 4.97467 45.76 5.20667 45.704 5.42C45.648 5.63067 45.5653 5.81733 45.456 5.98C45.3467 6.14267 45.2053 6.27067 45.032 6.364C44.8613 6.45467 44.6653 6.5 44.444 6.5ZM43.856 5.944C44.2133 5.944 44.392 5.67067 44.392 5.124V4.444C44.392 4.204 44.3507 4.02533 44.268 3.908C44.188 3.79067 44.084 3.732 43.956 3.732C43.868 3.732 43.7773 3.75867 43.684 3.812V5.924C43.716 5.932 43.7453 5.93733 43.772 5.94C43.8013 5.94267 43.8293 5.944 43.856 5.944Z" fill="#F4F4F4"/>
<path d="M40.7724 6.144L40.7324 6.188C40.7058 6.22 40.6644 6.25733 40.6084 6.3C40.5551 6.34267 40.4924 6.38533 40.4204 6.428C40.3511 6.47067 40.2658 6.50667 40.1644 6.536C40.0631 6.568 39.9591 6.584 39.8524 6.584C39.1324 6.584 38.7724 6.228 38.7724 5.516C38.7724 5.37733 38.7978 5.25067 38.8484 5.136C38.8991 5.01867 38.9644 4.92 39.0444 4.84C39.1244 4.76 39.2204 4.68933 39.3324 4.628C39.4444 4.564 39.5564 4.51467 39.6684 4.48C39.7831 4.44267 39.9031 4.412 40.0284 4.388C40.1538 4.364 40.2658 4.348 40.3644 4.34C40.4631 4.332 40.5578 4.328 40.6484 4.328V4.256C40.6484 4.09333 40.6044 3.97867 40.5164 3.912C40.4311 3.84533 40.2924 3.812 40.1004 3.812C39.9351 3.812 39.7631 3.832 39.5844 3.872C39.4058 3.90933 39.2658 3.95467 39.1644 4.008L38.9084 3.464C39.0898 3.34667 39.3258 3.244 39.6164 3.156C39.9071 3.06533 40.2031 3.02 40.5044 3.02C40.7711 3.02 40.9911 3.04667 41.1644 3.1C41.3378 3.15067 41.4778 3.23867 41.5844 3.364C41.6938 3.48667 41.7711 3.644 41.8164 3.836C41.8618 4.02533 41.8844 4.26667 41.8844 4.56V6.188L41.9964 6.5H40.9004L40.7724 6.144ZM40.4564 5.88C40.4911 5.88 40.5231 5.87333 40.5524 5.86C40.5844 5.844 40.6084 5.82933 40.6244 5.816C40.6404 5.8 40.6484 5.792 40.6484 5.792V4.832C40.4858 4.832 40.3564 4.87733 40.2604 4.968C40.1644 5.056 40.1164 5.19333 40.1164 5.38C40.1164 5.71333 40.2298 5.88 40.4564 5.88Z" fill="#F4F4F4"/>
<path d="M34.5942 6.5H33.3022V3.912L33.0622 3.764V3.336L33.9222 3.1H34.6022V3.616C34.6156 3.59733 34.6342 3.57333 34.6582 3.544C34.6849 3.512 34.7329 3.46267 34.8022 3.396C34.8716 3.32933 34.9422 3.27067 35.0142 3.22C35.0889 3.16933 35.1782 3.124 35.2822 3.084C35.3889 3.04133 35.4942 3.02 35.5982 3.02C35.8649 3.02 36.0689 3.07067 36.2102 3.172C36.3516 3.27333 36.4516 3.43867 36.5102 3.668C36.6009 3.51067 36.7396 3.364 36.9262 3.228C37.1156 3.08933 37.3236 3.02 37.5502 3.02C37.8009 3.02 37.9956 3.064 38.1342 3.152C38.2756 3.23733 38.3782 3.384 38.4422 3.592C38.5062 3.8 38.5382 4.09333 38.5382 4.472V6.5H37.2382V4.356C37.2382 4.23867 37.2102 4.14667 37.1542 4.08C37.0982 4.01333 37.0129 3.98 36.8982 3.98C36.8209 3.98 36.7156 4.044 36.5822 4.172C36.5902 4.3 36.5942 4.43867 36.5942 4.588V6.5H35.2742V4.356C35.2822 4.10533 35.1756 3.98 34.9542 3.98C34.9382 3.98 34.9222 3.98133 34.9062 3.984C34.8929 3.98667 34.8796 3.98933 34.8662 3.992C34.8556 3.99467 34.8422 4 34.8262 4.008C34.8129 4.01333 34.8009 4.01867 34.7902 4.024C34.7796 4.02667 34.7676 4.03333 34.7542 4.044C34.7409 4.052 34.7302 4.05867 34.7222 4.064C34.7142 4.06933 34.7022 4.07867 34.6862 4.092C34.6729 4.10267 34.6622 4.11067 34.6542 4.116C34.6489 4.12133 34.6382 4.13067 34.6222 4.144C34.6089 4.15467 34.5996 4.16267 34.5942 4.168V6.5Z" fill="#F4F4F4"/>
<path d="M31.3144 6.584C31.1091 6.584 30.9171 6.56533 30.7384 6.528C30.5624 6.49333 30.4144 6.44667 30.2944 6.388C30.1744 6.32933 30.0757 6.27333 29.9984 6.22C29.9237 6.16667 29.8611 6.11333 29.8104 6.06L29.9104 5.088C30.0197 5.23467 30.1664 5.36267 30.3504 5.472C30.5344 5.57867 30.7331 5.632 30.9464 5.632C31.1597 5.632 31.3131 5.60933 31.4064 5.564C31.5024 5.51867 31.5504 5.436 31.5504 5.316C31.5504 5.188 31.4957 5.07867 31.3864 4.988C31.2797 4.89733 31.0944 4.788 30.8304 4.66C30.7344 4.612 30.6531 4.56933 30.5864 4.532C30.5197 4.492 30.4304 4.428 30.3184 4.34C30.2091 4.24933 30.1197 4.156 30.0504 4.06C29.9811 3.96133 29.9197 3.836 29.8664 3.684C29.8131 3.52933 29.7864 3.364 29.7864 3.188C29.7864 2.236 30.3237 1.76 31.3984 1.76C31.5691 1.76 31.7291 1.77867 31.8784 1.816C32.0304 1.85067 32.1491 1.88933 32.2344 1.932C32.3197 1.97467 32.3971 2.02533 32.4664 2.084C32.5384 2.14 32.5837 2.18 32.6024 2.204C32.6211 2.22533 32.6344 2.24267 32.6424 2.256L32.4424 3.028C32.3384 2.90533 32.2077 2.81467 32.0504 2.756C31.8957 2.69467 31.7477 2.664 31.6064 2.664C31.2651 2.664 31.0944 2.77067 31.0944 2.984C31.0944 3.04 31.1051 3.09067 31.1264 3.136C31.1477 3.18133 31.1824 3.22267 31.2304 3.26C31.2784 3.29733 31.3224 3.32933 31.3624 3.356C31.4051 3.38267 31.4624 3.416 31.5344 3.456C31.6091 3.49333 31.6651 3.524 31.7024 3.548C32.0917 3.71333 32.3771 3.90933 32.5584 4.136C32.7424 4.36267 32.8344 4.63867 32.8344 4.964C32.8344 5.492 32.7037 5.89467 32.4424 6.172C32.1837 6.44667 31.8077 6.584 31.3144 6.584Z" fill="#F4F4F4"/>
<path d="M27.9745 6.584C27.7692 6.584 27.5772 6.56533 27.3985 6.528C27.2225 6.49333 27.0745 6.44667 26.9545 6.388C26.8345 6.32933 26.7359 6.27333 26.6585 6.22C26.5839 6.16667 26.5212 6.11333 26.4705 6.06L26.5705 5.088C26.6799 5.23467 26.8265 5.36267 27.0105 5.472C27.1945 5.57867 27.3932 5.632 27.6065 5.632C27.8199 5.632 27.9732 5.60933 28.0665 5.564C28.1625 5.51867 28.2105 5.436 28.2105 5.316C28.2105 5.188 28.1559 5.07867 28.0465 4.988C27.9399 4.89733 27.7545 4.788 27.4905 4.66C27.3945 4.612 27.3132 4.56933 27.2465 4.532C27.1799 4.492 27.0905 4.428 26.9785 4.34C26.8692 4.24933 26.7799 4.156 26.7105 4.06C26.6412 3.96133 26.5799 3.836 26.5265 3.684C26.4732 3.52933 26.4465 3.364 26.4465 3.188C26.4465 2.236 26.9839 1.76 28.0585 1.76C28.2292 1.76 28.3892 1.77867 28.5385 1.816C28.6905 1.85067 28.8092 1.88933 28.8945 1.932C28.9799 1.97467 29.0572 2.02533 29.1265 2.084C29.1985 2.14 29.2439 2.18 29.2625 2.204C29.2812 2.22533 29.2945 2.24267 29.3025 2.256L29.1025 3.028C28.9985 2.90533 28.8679 2.81467 28.7105 2.756C28.5559 2.69467 28.4079 2.664 28.2665 2.664C27.9252 2.664 27.7545 2.77067 27.7545 2.984C27.7545 3.04 27.7652 3.09067 27.7865 3.136C27.8079 3.18133 27.8425 3.22267 27.8905 3.26C27.9385 3.29733 27.9825 3.32933 28.0225 3.356C28.0652 3.38267 28.1225 3.416 28.1945 3.456C28.2692 3.49333 28.3252 3.524 28.3625 3.548C28.7519 3.71333 29.0372 3.90933 29.2185 4.136C29.4025 4.36267 29.4945 4.63867 29.4945 4.964C29.4945 5.492 29.3639 5.89467 29.1025 6.172C28.8439 6.44667 28.4679 6.584 27.9745 6.584Z" fill="#F4F4F4"/>
<path d="M26.2153 6.5H23.3793V1.812H26.1553L26.0753 2.756L24.7033 2.716V3.62H25.7833V4.556L24.7033 4.476V5.54L26.2153 5.5V6.5Z" fill="#F4F4F4"/>
<path d="M23.0229 6.168L22.9869 6.212C22.9603 6.23867 22.9149 6.27333 22.8509 6.316C22.7896 6.356 22.7149 6.39733 22.6269 6.44C22.5416 6.48 22.4269 6.51333 22.2829 6.54C22.1389 6.56933 21.9843 6.584 21.8189 6.584C21.4696 6.584 21.1709 6.52667 20.9229 6.412C20.6749 6.29467 20.4803 6.12533 20.3389 5.904C20.2003 5.68 20.1003 5.428 20.0389 5.148C19.9776 4.86533 19.9469 4.53867 19.9469 4.168C19.9469 3.77333 19.9776 3.43333 20.0389 3.148C20.1003 2.86 20.2016 2.608 20.3429 2.392C20.4869 2.17333 20.6843 2.00933 20.9349 1.9C21.1856 1.79067 21.4909 1.736 21.8509 1.736C22.0163 1.736 22.1709 1.75067 22.3149 1.78C22.4616 1.80933 22.5763 1.84267 22.6589 1.88C22.7443 1.91733 22.8203 1.96 22.8869 2.008C22.9563 2.056 22.9989 2.08933 23.0149 2.108C23.0336 2.12667 23.0469 2.14133 23.0549 2.152L22.9949 3.072H22.3869L22.1789 2.596C22.1309 2.58267 22.0909 2.576 22.0589 2.576C21.8803 2.576 21.7429 2.61733 21.6469 2.7C21.5509 2.78 21.4776 2.93867 21.4269 3.176C21.3763 3.41067 21.3509 3.74933 21.3509 4.192C21.3509 4.456 21.3669 4.68667 21.3989 4.884C21.4336 5.08133 21.4749 5.23333 21.5229 5.34C21.5709 5.444 21.6283 5.528 21.6949 5.592C21.7616 5.656 21.8216 5.69733 21.8749 5.716C21.9283 5.732 21.9856 5.74 22.0469 5.74C22.1829 5.74 22.3256 5.724 22.4749 5.692C22.6243 5.65733 22.7469 5.60533 22.8429 5.536L23.0229 6.168Z" fill="#F4F4F4"/>
<path d="M19.7065 6.168L19.6705 6.212C19.6439 6.23867 19.5985 6.27333 19.5345 6.316C19.4732 6.356 19.3985 6.39733 19.3105 6.44C19.2252 6.48 19.1105 6.51333 18.9665 6.54C18.8225 6.56933 18.6678 6.584 18.5025 6.584C18.1532 6.584 17.8545 6.52667 17.6065 6.412C17.3585 6.29467 17.1638 6.12533 17.0225 5.904C16.8839 5.68 16.7838 5.428 16.7225 5.148C16.6612 4.86533 16.6305 4.53867 16.6305 4.168C16.6305 3.77333 16.6612 3.43333 16.7225 3.148C16.7838 2.86 16.8852 2.608 17.0265 2.392C17.1705 2.17333 17.3678 2.00933 17.6185 1.9C17.8692 1.79067 18.1745 1.736 18.5345 1.736C18.6998 1.736 18.8545 1.75067 18.9985 1.78C19.1452 1.80933 19.2598 1.84267 19.3425 1.88C19.4278 1.91733 19.5038 1.96 19.5705 2.008C19.6399 2.056 19.6825 2.08933 19.6985 2.108C19.7172 2.12667 19.7305 2.14133 19.7385 2.152L19.6785 3.072H19.0705L18.8625 2.596C18.8145 2.58267 18.7745 2.576 18.7425 2.576C18.5638 2.576 18.4265 2.61733 18.3305 2.7C18.2345 2.78 18.1612 2.93867 18.1105 3.176C18.0598 3.41067 18.0345 3.74933 18.0345 4.192C18.0345 4.456 18.0505 4.68667 18.0825 4.884C18.1172 5.08133 18.1585 5.23333 18.2065 5.34C18.2545 5.444 18.3118 5.528 18.3785 5.592C18.4452 5.656 18.5052 5.69733 18.5585 5.716C18.6118 5.732 18.6692 5.74 18.7305 5.74C18.8665 5.74 19.0092 5.724 19.1585 5.692C19.3078 5.65733 19.4305 5.60533 19.5265 5.536L19.7065 6.168Z" fill="#F4F4F4"/>
<path d="M15.1207 6.5L14.9407 5.752H13.8047L13.6527 6.5H12.4767L13.6967 2.136L13.6007 1.812H15.2527L16.5887 6.5H15.1207ZM14.3207 3.188L13.9687 4.936H14.7447L14.3207 3.188Z" fill="#F4F4F4"/>
</svg>
