<svg width="71" height="12" viewBox="0 0 71 12" fill="none" xmlns="http://www.w3.org/2000/svg">
<path d="M1.49219 5.5339L0.554688 7.51695L1.49219 9.5H2.27344L3.21094 9.19491L4.14844 7.21186L3.36719 7.51695L2.27344 5.5339H1.49219Z" stroke="#6B53E4"/>
<path d="M4.14844 0.5L2.89844 2.48305H3.83594L7.58594 9.5H8.83594L10.0859 7.36441H9.30469L5.71094 0.5H4.14844Z" stroke="#6B53E4"/>
<path d="M9.61719 0.5L8.36719 2.48305H9.14844L13.0547 9.5H14.3047L15.5547 7.36441L14.7734 7.51695L11.0234 0.5H9.61719Z" stroke="#6B53E4"/>
<path d="M17.9062 9.49961L19.7463 2.19961H21.3563L23.2063 9.49961H21.9262L21.5263 7.72961H19.5863L19.1862 9.49961H17.9062ZM19.8163 6.70961H21.2963L20.8563 4.74961C20.7829 4.42294 20.7196 4.12961 20.6663 3.86961C20.6129 3.60294 20.5763 3.40961 20.5563 3.28961C20.5363 3.40961 20.4996 3.60294 20.4462 3.86961C20.3996 4.12961 20.3363 4.41961 20.2563 4.73961L19.8163 6.70961Z" fill="#333040"/>
<path d="M26.5923 9.59961C26.1257 9.59961 25.7157 9.51294 25.3623 9.33961C25.0157 9.15961 24.7457 8.90961 24.5523 8.58961C24.3657 8.26294 24.2723 7.87961 24.2723 7.43961V4.25961C24.2723 3.81294 24.3657 3.42961 24.5523 3.10961C24.7457 2.78961 25.0157 2.54294 25.3623 2.36961C25.7157 2.18961 26.1257 2.09961 26.5923 2.09961C27.0657 2.09961 27.4723 2.18961 27.8123 2.36961C28.159 2.54294 28.429 2.78961 28.6223 3.10961C28.8157 3.42961 28.9123 3.81294 28.9123 4.25961H27.6523C27.6523 3.91294 27.559 3.64961 27.3723 3.46961C27.1923 3.28961 26.9323 3.19961 26.5923 3.19961C26.2523 3.19961 25.989 3.28961 25.8023 3.46961C25.6157 3.64961 25.5223 3.90961 25.5223 4.24961V7.43961C25.5223 7.77961 25.6157 8.04294 25.8023 8.22961C25.989 8.40961 26.2523 8.49961 26.5923 8.49961C26.9323 8.49961 27.1923 8.40961 27.3723 8.22961C27.559 8.04294 27.6523 7.77961 27.6523 7.43961H28.9123C28.9123 7.87294 28.8157 8.25294 28.6223 8.57961C28.429 8.90628 28.159 9.15961 27.8123 9.33961C27.4723 9.51294 27.0657 9.59961 26.5923 9.59961Z" fill="#333040"/>
<path d="M32.5884 9.59961C32.1218 9.59961 31.7118 9.51294 31.3584 9.33961C31.0118 9.15961 30.7418 8.90961 30.5484 8.58961C30.3618 8.26294 30.2684 7.87961 30.2684 7.43961V4.25961C30.2684 3.81294 30.3618 3.42961 30.5484 3.10961C30.7418 2.78961 31.0118 2.54294 31.3584 2.36961C31.7118 2.18961 32.1218 2.09961 32.5884 2.09961C33.0618 2.09961 33.4684 2.18961 33.8084 2.36961C34.1551 2.54294 34.4251 2.78961 34.6184 3.10961C34.8118 3.42961 34.9084 3.81294 34.9084 4.25961H33.6484C33.6484 3.91294 33.5551 3.64961 33.3684 3.46961C33.1884 3.28961 32.9284 3.19961 32.5884 3.19961C32.2484 3.19961 31.9851 3.28961 31.7984 3.46961C31.6118 3.64961 31.5184 3.90961 31.5184 4.24961V7.43961C31.5184 7.77961 31.6118 8.04294 31.7984 8.22961C31.9851 8.40961 32.2484 8.49961 32.5884 8.49961C32.9284 8.49961 33.1884 8.40961 33.3684 8.22961C33.5551 8.04294 33.6484 7.77961 33.6484 7.43961H34.9084C34.9084 7.87294 34.8118 8.25294 34.6184 8.57961C34.4251 8.90628 34.1551 9.15961 33.8084 9.33961C33.4684 9.51294 33.0618 9.59961 32.5884 9.59961Z" fill="#333040"/>
<path d="M36.4245 9.49961V2.19961H40.8045V3.28961H37.6545V5.18961H40.4545V6.26961H37.6545V8.40961H40.8045V9.49961H36.4245Z" fill="#333040"/>
<path d="M44.5606 9.59961C44.0606 9.59961 43.6273 9.51628 43.2606 9.34961C42.894 9.18294 42.6106 8.94628 42.4106 8.63961C42.2173 8.32628 42.1173 7.95961 42.1106 7.53961H43.3606C43.3606 7.83961 43.4673 8.07628 43.6806 8.24961C43.9006 8.41628 44.1973 8.49961 44.5706 8.49961C44.9306 8.49961 45.2106 8.41628 45.4106 8.24961C45.6173 8.08294 45.7206 7.85294 45.7206 7.55961C45.7206 7.31294 45.6473 7.09961 45.5006 6.91961C45.3606 6.73294 45.1573 6.60628 44.8906 6.53961L44.0506 6.30961C43.4773 6.16294 43.034 5.89961 42.7206 5.51961C42.414 5.13961 42.2606 4.67961 42.2606 4.13961C42.2606 3.72628 42.354 3.36628 42.5406 3.05961C42.7273 2.75294 42.9906 2.51628 43.3306 2.34961C43.6773 2.18294 44.084 2.09961 44.5506 2.09961C45.2573 2.09961 45.8173 2.28294 46.2306 2.64961C46.644 3.00961 46.854 3.49628 46.8606 4.10961H45.6106C45.6106 3.82294 45.5173 3.59961 45.3306 3.43961C45.144 3.27294 44.8806 3.18961 44.5406 3.18961C44.214 3.18961 43.9606 3.26628 43.7806 3.41961C43.6006 3.57294 43.5106 3.78961 43.5106 4.06961C43.5106 4.32294 43.5773 4.53961 43.7106 4.71961C43.8506 4.89294 44.0506 5.01628 44.3106 5.08961L45.1806 5.32961C45.7606 5.47628 46.204 5.73961 46.5106 6.11961C46.8173 6.49294 46.9706 6.95628 46.9706 7.50961C46.9706 7.92294 46.8706 8.28961 46.6706 8.60961C46.4706 8.92294 46.1906 9.16628 45.8306 9.33961C45.4706 9.51294 45.0473 9.59961 44.5606 9.59961Z" fill="#333040"/>
<path d="M50.5567 9.59961C50.0567 9.59961 49.6234 9.51628 49.2567 9.34961C48.8901 9.18294 48.6067 8.94628 48.4067 8.63961C48.2134 8.32628 48.1134 7.95961 48.1067 7.53961H49.3567C49.3567 7.83961 49.4634 8.07628 49.6767 8.24961C49.8967 8.41628 50.1934 8.49961 50.5667 8.49961C50.9267 8.49961 51.2067 8.41628 51.4067 8.24961C51.6134 8.08294 51.7167 7.85294 51.7167 7.55961C51.7167 7.31294 51.6434 7.09961 51.4967 6.91961C51.3567 6.73294 51.1534 6.60628 50.8867 6.53961L50.0467 6.30961C49.4734 6.16294 49.0301 5.89961 48.7167 5.51961C48.4101 5.13961 48.2567 4.67961 48.2567 4.13961C48.2567 3.72628 48.3501 3.36628 48.5367 3.05961C48.7234 2.75294 48.9867 2.51628 49.3267 2.34961C49.6734 2.18294 50.0801 2.09961 50.5467 2.09961C51.2534 2.09961 51.8134 2.28294 52.2267 2.64961C52.6401 3.00961 52.8501 3.49628 52.8567 4.10961H51.6067C51.6067 3.82294 51.5134 3.59961 51.3267 3.43961C51.1401 3.27294 50.8767 3.18961 50.5367 3.18961C50.2101 3.18961 49.9567 3.26628 49.7767 3.41961C49.5967 3.57294 49.5067 3.78961 49.5067 4.06961C49.5067 4.32294 49.5734 4.53961 49.7067 4.71961C49.8467 4.89294 50.0467 5.01628 50.3067 5.08961L51.1767 5.32961C51.7567 5.47628 52.2001 5.73961 52.5067 6.11961C52.8134 6.49294 52.9667 6.95628 52.9667 7.50961C52.9667 7.92294 52.8667 8.28961 52.6667 8.60961C52.4667 8.92294 52.1867 9.16628 51.8267 9.33961C51.4667 9.51294 51.0434 9.59961 50.5567 9.59961Z" fill="#333040"/>
<path d="M54.0528 9.49961V3.99961H55.0728V4.73961H55.2828L55.1128 4.91961C55.1128 4.61294 55.1995 4.36628 55.3728 4.17961C55.5461 3.99294 55.7695 3.89961 56.0428 3.89961C56.3361 3.89961 56.5628 4.01961 56.7228 4.25961C56.8895 4.49961 56.9728 4.82294 56.9728 5.22961L56.7528 4.73961H57.0928L56.9628 4.91961C56.9628 4.61294 57.0495 4.36628 57.2228 4.17961C57.3961 3.99294 57.6261 3.89961 57.9128 3.89961C58.2528 3.89961 58.5228 4.02628 58.7228 4.27961C58.9228 4.53294 59.0228 4.87628 59.0228 5.30961V9.49961H57.9228V5.35961C57.9228 5.17961 57.8828 5.03961 57.8028 4.93961C57.7228 4.83294 57.6061 4.77961 57.4528 4.77961C57.3061 4.77961 57.1895 4.82961 57.1028 4.92961C57.0228 5.02961 56.9828 5.17294 56.9828 5.35961V9.49961H56.0828V5.35961C56.0828 5.17294 56.0428 5.02961 55.9628 4.92961C55.8828 4.82961 55.7661 4.77961 55.6128 4.77961C55.4595 4.77961 55.3428 4.82961 55.2628 4.92961C55.1895 5.02961 55.1528 5.17294 55.1528 5.35961V9.49961H54.0528Z" fill="#333040"/>
<path d="M61.9189 9.59961C61.3522 9.59961 60.9056 9.44961 60.5789 9.14961C60.2522 8.84961 60.0889 8.44628 60.0889 7.93961C60.0889 7.39961 60.2689 6.98294 60.6289 6.68961C60.9889 6.39628 61.4989 6.24961 62.1589 6.24961H63.5289V5.77961C63.5289 5.51294 63.4422 5.30628 63.2689 5.15961C63.0956 5.00628 62.8589 4.92961 62.5589 4.92961C62.2856 4.92961 62.0589 4.98961 61.8789 5.10961C61.6989 5.22961 61.5922 5.39294 61.5589 5.59961H60.3389C60.3989 5.07961 60.6322 4.66628 61.0389 4.35961C61.4456 4.05294 61.9656 3.89961 62.5989 3.89961C63.2722 3.89961 63.8022 4.06961 64.1889 4.40961C64.5822 4.74294 64.7789 5.19628 64.7789 5.76961V9.49961H63.5689V8.53961H63.3689L63.5689 8.26961C63.5689 8.67628 63.4189 8.99961 63.1189 9.23961C62.8189 9.47961 62.4189 9.59961 61.9189 9.59961ZM62.3289 8.65961C62.6822 8.65961 62.9689 8.56961 63.1889 8.38961C63.4156 8.20961 63.5289 7.97628 63.5289 7.68961V7.01961H62.1789C61.9256 7.01961 61.7222 7.09294 61.5689 7.23961C61.4156 7.38628 61.3389 7.57961 61.3389 7.81961C61.3389 8.07961 61.4256 8.28628 61.5989 8.43961C61.7789 8.58628 62.0222 8.65961 62.3289 8.65961Z" fill="#333040"/>
<path d="M66.295 11.2996V3.99961H67.515V5.04961H67.795L67.515 5.33961C67.515 4.89294 67.6483 4.54294 67.915 4.28961C68.1817 4.02961 68.5417 3.89961 68.995 3.89961C69.5483 3.89961 69.9917 4.08961 70.325 4.46961C70.6583 4.84961 70.825 5.35961 70.825 5.99961V7.48961C70.825 7.91628 70.7483 8.28961 70.595 8.60961C70.4483 8.92294 70.2383 9.16628 69.965 9.33961C69.6917 9.51294 69.3683 9.59961 68.995 9.59961C68.5417 9.59961 68.1817 9.47294 67.915 9.21961C67.6483 8.95961 67.515 8.60628 67.515 8.15961L67.795 8.44961H67.505L67.545 9.75961V11.2996H66.295ZM68.555 8.51961C68.875 8.51961 69.125 8.42628 69.305 8.23961C69.485 8.05294 69.575 7.78628 69.575 7.43961V6.05961C69.575 5.71294 69.485 5.44628 69.305 5.25961C69.125 5.07294 68.875 4.97961 68.555 4.97961C68.2417 4.97961 67.995 5.07628 67.815 5.26961C67.635 5.45628 67.545 5.71961 67.545 6.05961V7.43961C67.545 7.77961 67.635 8.04628 67.815 8.23961C67.995 8.42628 68.2417 8.51961 68.555 8.51961Z" fill="#333040"/>
</svg>
